# xmcd
# 
# Track frame offsets:
#     150
#     10162
#     23247
#     32422
#     41757
#     53235
#     65632
#     71932
#     82882
#     105745
#     119687
#     128957
#     143022
#     157317
#     172345
#     186715
#     204490
# 
# Disc length: 2893
# 
# Revision: 4
# Processed by: cddbd v1.5.2PL0 Copyright (c) Steve Scherf et al.
# Submitted via: BonkEnc v1.0.5
# 
DISCID=050b4b11
DTITLE=Terry Sonny - The Folkways Years, 1944-1963
DYEAR=0
DGENRE=
TTITLE0=Old Jabo
TTITLE1=Going Down Slow
TTITLE2=Crow Jane Blues
TTITLE3=Harmonica with Slaps
TTITLE4=Pick A Bale of Cotton
TTITLE5=Dark Road
TTITLE6=Skip To My Lou
TTITLE7=The Woman is Killing Me
TTITLE8=Jail House Blues
TTITLE9=Fox Chase/Right on that Shore
TTITLE10=Shortnin' Bread
TTITLE11=Sweet Woman
TTITLE12=Lost John
TTITLE13=A Man Is Nothing but a Fool
TTITLE14=Poor Man (But a Good man)
TTITLE15=I've Been Your Doggie Since I Been Your Man
TTITLE16=Custard Pie Blues
EXTD=
EXTT0=
EXTT1=
EXTT2=
EXTT3=
EXTT4=
EXTT5=
EXTT6=
EXTT7=
EXTT8=
EXTT9=
EXTT10=
EXTT11=
EXTT12=
EXTT13=
EXTT14=
EXTT15=
EXTT16=
PLAYORDER=
